<?xml version="1.0" encoding="UTF-8"?>
<svg id="Layer_1" data-name="Layer 1" xmlns="http://www.w3.org/2000/svg" viewBox="0 0 128.56 31.1">
  <defs>
    <style>
      .cls-1 {
        fill: #c3db6b;
      }

      .cls-1, .cls-2 {
        stroke-width: 0px;
      }

      .cls-2 {
        fill: #f15959;
      }
    </style>
  </defs>
  <path class="cls-2" d="M25.24,7.33v23.48h-9.32v-3.58c-.73,1.11-1.7,2.01-2.92,2.71-1.22.69-2.67,1.04-4.35,1.04-2.72,0-4.84-.9-6.36-2.71-1.53-1.8-2.29-4.25-2.29-7.33V7.33h9.28v12.45c0,1.11.3,1.99.9,2.64.6.65,1.41.98,2.42.98s1.85-.33,2.44-.98c.59-.65.88-1.53.88-2.64V7.33h9.32Z"/>
  <path class="cls-2" d="M52.39,9.87c1.53,1.8,2.29,4.25,2.29,7.33v13.61h-9.28v-12.45c0-1.11-.3-1.99-.9-2.64-.6-.65-1.41-.98-2.42-.98s-1.85.33-2.44.98c-.59.65-.88,1.53-.88,2.64v12.45h-9.32V7.33h9.32v3.58c.73-1.11,1.7-2.01,2.92-2.71,1.22-.69,2.67-1.04,4.35-1.04,2.72,0,4.84.9,6.36,2.71Z"/>
  <path class="cls-1" d="M71.53,8.39c1.37-.82,2.8-1.23,4.28-1.23v9.87h-2.65c-1.76,0-3.06.31-3.88.92-.83.61-1.24,1.69-1.24,3.25v9.62h-9.32V7.33h9.32v4.33c.95-1.36,2.11-2.45,3.49-3.27Z"/>
  <path class="cls-1" d="M101.13,20.69h-14.99c.14,2.03.99,3.04,2.56,3.04,1.01,0,1.74-.46,2.18-1.37h9.87c-.34,1.67-1.04,3.16-2.12,4.48-1.08,1.32-2.44,2.36-4.07,3.12-1.64.76-3.44,1.14-5.4,1.14-2.35,0-4.45-.48-6.28-1.46-1.83-.97-3.26-2.37-4.28-4.18-1.02-1.82-1.53-3.95-1.53-6.39s.51-4.57,1.53-6.39c1.02-1.82,2.45-3.21,4.28-4.18,1.83-.97,3.93-1.46,6.28-1.46s4.45.48,6.28,1.44,3.26,2.32,4.28,4.1c1.02,1.78,1.53,3.87,1.53,6.29,0,.64-.04,1.25-.13,1.83ZM91.81,16.65c0-.78-.25-1.37-.76-1.77s-1.13-.6-1.89-.6c-1.65,0-2.62.79-2.9,2.37h5.54Z"/>
  <path class="cls-1" d="M104.22,12.64c.85-1.82,2.02-3.21,3.51-4.16,1.48-.96,3.15-1.44,5-1.44,1.54,0,2.86.31,3.97.94s1.95,1.48,2.54,2.56V0h9.32v30.81h-9.32v-3.21c-.59,1.08-1.43,1.94-2.54,2.56-1.11.62-2.43.94-3.97.94-1.85,0-3.51-.48-5-1.44-1.48-.96-2.65-2.35-3.51-4.16-.85-1.82-1.28-3.96-1.28-6.43s.43-4.61,1.28-6.43ZM118.31,16.15c-.64-.69-1.47-1.04-2.48-1.04s-1.83.35-2.48,1.04c-.64.69-.97,1.67-.97,2.91s.32,2.22.97,2.91c.64.69,1.47,1.04,2.48,1.04s1.83-.35,2.48-1.04c.64-.69.97-1.67.97-2.91s-.32-2.22-.97-2.91Z"/>
</svg>